<?xml version="1.0" encoding="UTF-8"?>
<svg xmlns="http://www.w3.org/2000/svg" xmlns:xlink="http://www.w3.org/1999/xlink" width="44px" height="50px" viewBox="0 0 44 49" version="1.1">
<defs>
<clipPath id="clip1">
  <path d="M 6.601562 19.046875 L 37.402344 19.046875 L 37.402344 29.953125 L 6.601562 29.953125 Z M 6.601562 19.046875 "/>
</clipPath>
</defs>
<g id="surface1">
<path style=" stroke:none;fill-rule:nonzero;fill:rgb(87.843137%,98.431373%,98.823529%);fill-opacity:1;" d="M 30.191406 5.582031 C 30.289062 5.582031 31.066406 5.964844 31.503906 6.109375 C 31.359375 6.160156 31.019531 6.015625 30.628906 5.871094 C 30.726562 5.871094 30.921875 5.917969 31.117188 6.015625 C 31.019531 5.917969 30.289062 5.679688 30.191406 5.582031 M 22.949219 4.089844 C 23.09375 4.042969 24.796875 4.28125 25.574219 4.332031 C 25.621094 4.28125 25.476562 4.28125 25.28125 4.234375 C 25.523438 4.1875 26.011719 4.332031 26.351562 4.378906 C 25.332031 4.425781 24.210938 4.136719 23.238281 4.234375 C 22.898438 4.234375 23.144531 4.136719 22.949219 4.089844 M 21.539062 4.089844 C 22.414062 4.089844 23.09375 4.089844 21.828125 4.1875 C 21.683594 4.136719 21.488281 4.136719 21.539062 4.089844 M 35.296875 8.085938 C 35.394531 8.085938 35.785156 8.515625 35.976562 8.660156 C 35.929688 8.710938 35.539062 8.324219 35.347656 8.179688 C 35.394531 8.230469 35.347656 8.179688 35.296875 8.085938 M 34.324219 7.457031 C 33.9375 7.121094 33.789062 7.121094 33.742188 6.929688 C 34.082031 7.121094 34.324219 7.3125 34.324219 7.457031 M 28.054688 4.425781 C 28.101562 4.378906 28.199219 4.476562 28.441406 4.523438 C 28.148438 4.476562 28.199219 4.523438 28.296875 4.617188 C 27.957031 4.570312 27.859375 4.523438 27.957031 4.425781 C 28.148438 4.523438 28.199219 4.476562 28.054688 4.425781 M 14.246094 5.003906 C 14.246094 4.957031 14.441406 4.859375 14.585938 4.8125 C 14.441406 4.90625 14.488281 4.957031 14.730469 4.859375 C 14.730469 4.90625 14.441406 5.003906 14.246094 5.101562 C 14.34375 5.050781 14.441406 4.90625 14.246094 5.003906 M 29.027344 3.945312 C 28.878906 3.992188 28.34375 3.703125 27.808594 3.609375 C 27.519531 3.511719 28.976562 3.847656 29.027344 3.945312 M 0.339844 27.71875 C 0.632812 28.921875 0.4375 28.875 0.339844 27.71875 M 0.390625 20.5 C 0.4375 20.308594 0.484375 19.777344 0.535156 19.828125 C 0.390625 20.984375 0.144531 21.511719 0.0976562 22.378906 C 0.242188 21.609375 0.046875 22.8125 0 23.101562 C 0.046875 23.484375 0.046875 22.859375 0.144531 22.957031 C 0.242188 23.101562 -0.046875 25.121094 0.046875 24.015625 C -0.046875 25.023438 0.046875 26.132812 0.242188 26.421875 C 0 27.960938 1.214844 31.425781 1.457031 32.148438 C 1.507812 32.195312 1.457031 31.90625 1.554688 32.101562 C 1.652344 32.726562 2.089844 33.160156 2.238281 33.832031 C 2.382812 34.023438 2.964844 35.082031 3.0625 35.324219 C 3.257812 35.710938 3.355469 35.660156 3.550781 36.046875 C 4.132812 37.152344 5.054688 38.210938 5.929688 39.222656 C 8.75 42.496094 13.078125 45.191406 17.890625 46.152344 C 22.707031 47.164062 27.761719 46.441406 31.699219 44.566406 C 31.941406 44.421875 31.894531 44.371094 32.1875 44.277344 C 33.546875 43.84375 35.199219 42.449219 36.125 41.917969 C 36.5625 41.4375 37.726562 40.617188 37.875 40.136719 C 38.699219 39.464844 39.527344 38.355469 39.964844 37.632812 C 40.207031 37.25 40.402344 37.25 40.5 37.007812 C 40.449219 37.007812 41.277344 36 41.519531 35.421875 C 41.421875 35.421875 41.277344 35.710938 41.277344 35.421875 C 43.027344 32.101562 44 27.625 43.464844 24.542969 C 43.5625 28.347656 42.589844 32.582031 40.742188 35.277344 C 39.914062 37.007812 38.214844 38.886719 36.660156 40.234375 C 36.414062 40.472656 36.171875 40.761719 35.878906 40.957031 C 34.957031 41.726562 33.9375 42.351562 32.867188 42.929688 C 30.339844 44.324219 27.519531 45.527344 24.210938 45.574219 C 29.902344 45.09375 35.003906 42.253906 37.824219 38.789062 C 35.6875 40.859375 34.761719 41.675781 32.378906 42.878906 C 32.1875 43.21875 30.582031 43.890625 29.511719 44.179688 C 30.144531 43.890625 31.457031 43.410156 31.894531 43.023438 C 28.34375 44.710938 24.40625 45.671875 20.710938 45.144531 C 22.121094 45.144531 24.113281 45.191406 26.011719 44.855469 C 26.304688 44.757812 26.449219 44.660156 26.789062 44.613281 C 30.484375 43.796875 34.03125 42.015625 36.5625 39.511719 C 35.101562 40.8125 32.914062 42.351562 31.503906 42.832031 C 32.816406 42.109375 35.199219 40.714844 35.976562 39.65625 C 34.421875 41.195312 31.503906 42.734375 29.65625 43.410156 C 29.367188 43.457031 29.851562 43.21875 29.367188 43.410156 C 28.78125 43.554688 29.027344 43.554688 28.878906 43.652344 C 26.644531 44.277344 24.066406 44.804688 21.925781 44.613281 C 21.539062 44.566406 21.390625 44.46875 21.050781 44.46875 C 20.664062 44.421875 20.324219 44.421875 19.886719 44.421875 C 18.183594 44.226562 16.335938 43.554688 14.972656 42.976562 C 14.246094 42.640625 13.515625 42.398438 12.785156 41.964844 C 12.203125 41.628906 11.71875 41.246094 11.230469 40.859375 C 9.382812 39.511719 7.828125 38.164062 6.367188 36.238281 C 3.742188 32.628906 2.382812 28.105469 2.578125 23.628906 C 2.769531 19.152344 4.570312 14.773438 7.4375 11.550781 C 7.292969 11.695312 7.632812 11.210938 7.925781 10.925781 C 7.925781 11.019531 7.875 11.164062 8.214844 10.828125 C 8.507812 10.492188 8.121094 10.730469 8.265625 10.539062 C 11.28125 7.265625 16.53125 4.617188 21.925781 4.523438 C 22.121094 4.378906 22.460938 4.1875 22.851562 4.28125 C 22.851562 4.332031 22.609375 4.332031 22.609375 4.332031 C 23.140625 4.28125 23.628906 4.28125 23.871094 4.378906 C 23.921875 4.332031 23.675781 4.28125 23.871094 4.28125 C 24.210938 4.378906 24.308594 4.28125 24.503906 4.378906 C 24.359375 4.378906 24.210938 4.378906 24.113281 4.425781 C 25.332031 4.425781 26.109375 4.714844 27.324219 4.8125 C 26.691406 4.667969 26.546875 4.667969 26.058594 4.523438 C 26.59375 4.617188 26.835938 4.714844 27.082031 4.667969 C 26.984375 4.667969 27.03125 4.523438 27.128906 4.570312 C 28.101562 4.8125 28.199219 4.90625 29.21875 5.246094 C 29.316406 5.148438 28.78125 5.101562 28.636719 4.957031 C 29.609375 5.292969 30.484375 5.535156 31.066406 5.917969 C 30.871094 5.773438 30.289062 5.582031 29.851562 5.390625 C 29.804688 5.4375 29.996094 5.484375 30.046875 5.582031 C 29.558594 5.339844 28.878906 5.101562 28.199219 5.003906 C 28.78125 5.148438 29.171875 5.339844 29.414062 5.4375 C 28.878906 5.339844 28.199219 5.003906 27.421875 4.859375 C 28.683594 5.246094 31.066406 6.109375 32.527344 6.882812 C 31.992188 6.542969 31.359375 6.304688 31.019531 6.109375 C 31.308594 6.160156 31.652344 6.351562 31.652344 6.253906 C 31.992188 6.398438 32.429688 6.738281 32.671875 6.785156 C 32.234375 6.496094 31.359375 6.0625 31.066406 5.917969 C 34.714844 7.554688 37.972656 10.296875 40.0625 13.8125 C 40.257812 14.148438 40.546875 14.917969 40.792969 15.015625 C 40.742188 14.773438 40.546875 14.628906 40.355469 14.246094 C 40.449219 14.246094 40.449219 14.101562 40.355469 13.957031 C 40.160156 13.714844 40.355469 14.148438 40.160156 13.90625 C 39.285156 12.320312 38.214844 10.921875 36.5625 9.382812 C 37.484375 10.25 36.804688 9.625 36.609375 9.335938 C 37.875 10.441406 39.332031 12.320312 39.964844 13.28125 C 39.867188 13.136719 39.820312 13.042969 39.867188 13.042969 C 41.035156 15.015625 41.761719 16.796875 42.492188 19.347656 C 42.542969 19.394531 42.492188 19.152344 42.589844 19.296875 C 43.078125 21.320312 43.222656 23.003906 43.171875 24.542969 C 43.5625 21.945312 42.6875 17.902344 41.132812 14.726562 C 40.9375 14.339844 40.9375 14.628906 40.742188 14.195312 C 40.742188 14.050781 40.597656 13.761719 40.5 13.570312 C 38.554688 10.394531 36.171875 8.132812 33.351562 6.351562 C 33.546875 6.449219 33.9375 6.738281 33.9375 6.6875 C 28.683594 3.273438 22.609375 2.789062 17.601562 3.847656 C 17.257812 3.992188 17.113281 4.136719 16.726562 4.332031 C 17.453125 4.089844 17.890625 4.042969 18.574219 3.898438 C 18.71875 3.753906 17.941406 3.945312 18.28125 3.800781 C 18.328125 3.847656 18.960938 3.703125 19.105469 3.753906 C 19.105469 3.800781 18.914062 3.847656 18.863281 3.898438 C 20.46875 3.558594 22.121094 3.511719 23.53125 3.609375 C 22.703125 3.65625 21.199219 3.511719 20.710938 3.753906 C 21.199219 3.703125 21.878906 3.65625 22.316406 3.703125 C 21.734375 3.703125 20.664062 3.753906 20.175781 3.800781 C 20.128906 3.753906 20.953125 3.65625 20.417969 3.65625 C 20.175781 3.703125 19.789062 3.703125 19.640625 3.847656 C 15.460938 4.234375 11.375 6.398438 8.507812 8.949219 C 7.925781 9.433594 7.246094 9.960938 6.808594 10.492188 C 5.738281 11.695312 5.054688 12.898438 4.277344 13.957031 C 4.765625 12.945312 5.835938 11.40625 7.097656 10.105469 C 8.363281 8.804688 9.722656 7.699219 10.453125 7.121094 C 10.453125 7.3125 11.621094 6.398438 12.058594 6.109375 C 11.765625 6.351562 12.25 6.015625 12.347656 6.0625 C 13.90625 5.148438 15.167969 4.8125 16.578125 4.28125 C 16.238281 4.378906 15.945312 4.476562 15.898438 4.425781 C 16.238281 4.332031 16.433594 4.234375 16.382812 4.1875 C 15.023438 4.570312 12.882812 5.484375 11.183594 6.496094 C 14.246094 4.425781 18.136719 3.175781 21.976562 3.128906 C 25.816406 3.03125 29.558594 3.992188 32.527344 5.535156 C 34.519531 6.398438 36.414062 7.988281 37.921875 9.527344 C 38.359375 9.914062 38.019531 9.433594 38.652344 10.105469 C 38.457031 10.007812 38.3125 9.914062 38.554688 10.203125 C 38.945312 10.636719 38.457031 9.863281 39.089844 10.636719 C 39.039062 10.636719 38.847656 10.394531 38.847656 10.492188 C 40.546875 11.984375 41.859375 14.675781 42.636719 16.457031 C 42.445312 15.738281 41.957031 14.726562 41.570312 14.003906 C 42.734375 16.121094 43.125 17.371094 43.609375 19.25 C 43.804688 19.394531 43.515625 18.578125 43.707031 18.960938 C 43.757812 19.25 43.804688 20.164062 44 20.308594 C 43.855469 19.394531 43.609375 18.289062 43.417969 18.09375 C 43.5625 18.191406 43.171875 16.988281 42.929688 16.699219 C 42.832031 15.929688 42.152344 14.582031 41.570312 13.570312 C 39.476562 9.527344 35.734375 6.207031 31.554688 4.378906 C 31.554688 4.28125 31.308594 4.1875 31.214844 4.089844 C 27.082031 2.355469 22.121094 1.875 17.355469 2.984375 C 12.542969 4.136719 8.023438 6.882812 4.8125 10.828125 C 4.960938 10.347656 6.175781 9.433594 6.222656 9.046875 C 4.8125 10.539062 3.304688 12.511719 2.285156 14.628906 C 1.214844 16.746094 0.632812 18.914062 0.390625 20.5 "/>
<g clip-path="url(#clip1)" clip-rule="nonzero">
<path style=" stroke:none;fill-rule:nonzero;fill:rgb(87.843137%,98.431373%,98.823529%);fill-opacity:1;" d="M 7.960938 29.792969 L 6.601562 29.792969 L 10.765625 19.207031 L 12.304688 19.207031 L 16.449219 29.792969 L 15.074219 29.792969 L 12.027344 21.902344 L 11.527344 20.425781 L 11.492188 20.425781 L 11.023438 21.855469 Z M 14.359375 26.859375 L 8.640625 26.859375 L 8.640625 25.65625 L 14.359375 25.65625 Z M 25.945312 26.601562 L 27.242188 27.082031 C 27.015625 27.679688 26.691406 28.195312 26.269531 28.628906 C 25.847656 29.0625 25.351562 29.390625 24.785156 29.617188 C 24.21875 29.839844 23.601562 29.953125 22.929688 29.953125 C 21.917969 29.953125 21.039062 29.730469 20.296875 29.285156 C 19.558594 28.84375 18.984375 28.214844 18.578125 27.402344 C 18.175781 26.589844 17.972656 25.621094 17.972656 24.5 C 17.972656 23.378906 18.175781 22.410156 18.578125 21.597656 C 18.984375 20.785156 19.558594 20.15625 20.296875 19.710938 C 21.039062 19.269531 21.90625 19.046875 22.898438 19.046875 C 23.589844 19.046875 24.207031 19.140625 24.746094 19.324219 C 25.285156 19.515625 25.746094 19.792969 26.128906 20.160156 C 26.515625 20.53125 26.820312 20.980469 27.046875 21.515625 L 25.765625 22.109375 C 25.53125 21.5 25.1875 21.039062 24.738281 20.722656 C 24.289062 20.40625 23.710938 20.25 22.996094 20.25 C 22.273438 20.25 21.636719 20.417969 21.085938 20.753906 C 20.535156 21.089844 20.105469 21.574219 19.792969 22.207031 C 19.488281 22.835938 19.335938 23.601562 19.335938 24.5 C 19.335938 25.386719 19.480469 26.148438 19.773438 26.785156 C 20.0625 27.421875 20.480469 27.90625 21.019531 28.242188 C 21.558594 28.582031 22.195312 28.75 22.929688 28.75 C 23.644531 28.75 24.265625 28.570312 24.792969 28.210938 C 25.324219 27.855469 25.707031 27.316406 25.945312 26.601562 Z M 33.171875 19.046875 C 34.109375 19.046875 34.921875 19.234375 35.601562 19.613281 C 36.28125 19.996094 36.847656 20.554688 37.304688 21.292969 L 36.21875 22.125 C 35.816406 21.441406 35.367188 20.957031 34.863281 20.671875 C 34.363281 20.390625 33.753906 20.25 33.042969 20.25 C 32.46875 20.25 31.996094 20.328125 31.621094 20.492188 C 31.25 20.652344 30.980469 20.863281 30.804688 21.121094 C 30.632812 21.386719 30.546875 21.683594 30.546875 22.015625 C 30.546875 22.386719 30.664062 22.714844 30.902344 23 C 31.140625 23.285156 31.617188 23.503906 32.328125 23.664062 L 34.644531 24.179688 C 35.671875 24.402344 36.386719 24.742188 36.789062 25.195312 C 37.195312 25.652344 37.398438 26.214844 37.398438 26.890625 C 37.398438 27.488281 37.230469 28.019531 36.886719 28.484375 C 36.550781 28.949219 36.070312 29.3125 35.457031 29.566406 C 34.839844 29.824219 34.117188 29.953125 33.285156 29.953125 C 32.507812 29.953125 31.824219 29.847656 31.234375 29.640625 C 30.644531 29.429688 30.140625 29.152344 29.71875 28.796875 C 29.300781 28.445312 28.953125 28.050781 28.683594 27.613281 L 29.816406 26.695312 C 30.023438 27.105469 30.289062 27.460938 30.613281 27.773438 C 30.933594 28.082031 31.328125 28.324219 31.785156 28.492188 C 32.246094 28.664062 32.773438 28.75 33.367188 28.75 C 33.917969 28.75 34.394531 28.683594 34.796875 28.546875 C 35.203125 28.414062 35.515625 28.21875 35.730469 27.953125 C 35.945312 27.695312 36.054688 27.375 36.054688 27.003906 C 36.054688 26.660156 35.941406 26.351562 35.714844 26.078125 C 35.488281 25.804688 35.0625 25.601562 34.433594 25.460938 L 31.921875 24.902344 C 31.265625 24.75 30.730469 24.542969 30.328125 24.28125 C 29.921875 24.019531 29.628906 23.710938 29.453125 23.351562 C 29.273438 22.996094 29.1875 22.609375 29.1875 22.191406 C 29.1875 21.625 29.34375 21.101562 29.660156 20.625 C 29.980469 20.152344 30.441406 19.769531 31.039062 19.480469 C 31.640625 19.191406 32.351562 19.046875 33.171875 19.046875 Z M 33.171875 19.046875 "/>
</g>
</g>
</svg>
